<?xml version="1.0" encoding="utf-8" standalone="no"?>
<!DOCTYPE svg PUBLIC "-//W3C//DTD SVG 1.1//EN"
  "http://www.w3.org/Graphics/SVG/1.1/DTD/svg11.dtd">
<svg xmlns:xlink="http://www.w3.org/1999/xlink" width="820.724062pt" height="467.536875pt" viewBox="0 0 820.724062 467.536875" xmlns="http://www.w3.org/2000/svg" version="1.1">
 <metadata>
  <rdf:RDF xmlns:dc="http://purl.org/dc/elements/1.1/" xmlns:cc="http://creativecommons.org/ns#" xmlns:rdf="http://www.w3.org/1999/02/22-rdf-syntax-ns#">
   <cc:Work>
    <dc:type rdf:resource="http://purl.org/dc/dcmitype/StillImage"/>
    <dc:date>2026-04-21T23:00:06.954433</dc:date>
    <dc:format>image/svg+xml</dc:format>
    <dc:creator>
     <cc:Agent>
      <dc:title>Matplotlib v3.10.8, https://matplotlib.org/</dc:title>
     </cc:Agent>
    </dc:creator>
   </cc:Work>
  </rdf:RDF>
 </metadata>
 <defs>
  <style type="text/css">*{stroke-linejoin: round; stroke-linecap: butt}</style>
 </defs>
 <g id="figure_1">
  <g id="patch_1">
   <path d="M 0 467.536875 
L 820.724062 467.536875 
L 820.724062 0 
L 0 0 
z
" style="fill: #07111f"/>
  </g>
  <g id="axes_1">
   <g id="patch_2">
    <path d="M 53.307188 421.077187 
L 767.007187 421.077187 
L 767.007187 36.877187 
L 53.307188 36.877187 
z
" style="fill: #0b1220"/>
   </g>
   <g id="FillBetweenPolyCollection_1">
    <defs>
     <path id="m77352ba5d2" d="M 53.307188 -66.814954 
L 53.307188 -88.266009 
L 55.544492 -95.95659 
L 57.781796 -103.470545 
L 60.0191 -110.811931 
L 62.256404 -117.98471 
L 64.493708 -124.992756 
L 66.731012 -131.839851 
L 68.968316 -138.529691 
L 71.20562 -145.06589 
L 73.442924 -151.451975 
L 75.680228 -157.691393 
L 77.917532 -163.787514 
L 80.154836 -169.743628 
L 82.39214 -175.56295 
L 84.629445 -181.248623 
L 86.866749 -186.803716 
L 89.104053 -192.231228 
L 91.341357 -197.534088 
L 93.578661 -202.71516 
L 95.815965 -207.777241 
L 98.053269 -212.723063 
L 100.290573 -217.555297 
L 102.527877 -222.276552 
L 104.765181 -226.889375 
L 107.002485 -231.396258 
L 109.239789 -235.799634 
L 111.477093 -240.101879 
L 113.714398 -244.305316 
L 115.951702 -248.412216 
L 118.189006 -252.424793 
L 120.42631 -256.345216 
L 122.663614 -260.175601 
L 124.900918 -263.918015 
L 127.138222 -267.574478 
L 129.375526 -271.146965 
L 131.61283 -274.637405 
L 133.850134 -278.047681 
L 136.087438 -281.379635 
L 138.324742 -284.635066 
L 140.562046 -287.81573 
L 142.799351 -290.923346 
L 145.036655 -293.959591 
L 147.273959 -296.926104 
L 149.511263 -299.824486 
L 151.748567 -302.656302 
L 153.985871 -305.423082 
L 156.223175 -308.126318 
L 158.460479 -310.76747 
L 160.697783 -313.347964 
L 162.935087 -315.869193 
L 165.172391 -318.332518 
L 167.409695 -320.739269 
L 169.646999 -323.090745 
L 171.884303 -325.388216 
L 174.121608 -327.632922 
L 176.358912 -329.826075 
L 178.596216 -331.968859 
L 180.83352 -334.062431 
L 183.070824 -336.10792 
L 185.308128 -338.106432 
L 187.545432 -340.059045 
L 189.782736 -341.966813 
L 192.02004 -343.830766 
L 194.257344 -345.651911 
L 196.494648 -347.43123 
L 198.731952 -349.169685 
L 200.969256 -350.868213 
L 203.206561 -352.527732 
L 205.443865 -354.149137 
L 207.681169 -355.733305 
L 209.918473 -357.281089 
L 212.155777 -358.793327 
L 214.393081 -360.270833 
L 216.630385 -361.714407 
L 218.867689 -363.124826 
L 221.104993 -364.502853 
L 223.342297 -365.849232 
L 225.579601 -367.164689 
L 227.816905 -368.449934 
L 230.054209 -369.705662 
L 232.291514 -370.93255 
L 234.528818 -372.131261 
L 236.766122 -373.302441 
L 239.003426 -374.446724 
L 241.24073 -375.564726 
L 243.478034 -376.657052 
L 245.715338 -377.72429 
L 247.952642 -378.767018 
L 250.189946 -379.785798 
L 252.42725 -380.781181 
L 254.664554 -381.753703 
L 256.901858 -382.703889 
L 259.139162 -383.632253 
L 261.376466 -384.539295 
L 263.613771 -385.425506 
L 265.851075 -386.291364 
L 268.088379 -387.137336 
L 270.325683 -387.963879 
L 272.562987 -388.771439 
L 274.800291 -389.560452 
L 277.037595 -390.331345 
L 279.274899 -391.084532 
L 281.512203 -391.820422 
L 283.749507 -392.539411 
L 285.986811 -393.241887 
L 288.224115 -393.928229 
L 290.461419 -394.598809 
L 292.698724 -395.253988 
L 294.936028 -395.894119 
L 297.173332 -396.519549 
L 299.410636 -397.130615 
L 301.64794 -397.727647 
L 303.885244 -398.310968 
L 306.122548 -398.880891 
L 308.359852 -399.437725 
L 310.597156 -399.981771 
L 312.83446 -400.513322 
L 315.071764 -401.032665 
L 317.309068 -401.54008 
L 319.546372 -402.035842 
L 321.783677 -402.520218 
L 324.020981 -402.993469 
L 326.258285 -403.455852 
L 328.495589 -403.907615 
L 330.732893 -404.349003 
L 332.970197 -404.780254 
L 335.207501 -405.2016 
L 337.444805 -405.613269 
L 339.682109 -406.015484 
L 341.919413 -406.408462 
L 344.156717 -406.792414 
L 346.394021 -407.167548 
L 348.631325 -407.534066 
L 350.86863 -407.892167 
L 353.105934 -408.242043 
L 355.343238 -408.583884 
L 357.580542 -408.917874 
L 359.817846 -409.244194 
L 362.05515 -409.563019 
L 364.292454 -409.874522 
L 366.529758 -410.17887 
L 368.767062 -410.476229 
L 371.004366 -410.766759 
L 373.24167 -411.050616 
L 375.478974 -411.327954 
L 377.716278 -411.598922 
L 379.953582 -411.863667 
L 382.190887 -412.122332 
L 384.428191 -412.375056 
L 386.665495 -412.621976 
L 388.902799 -412.863225 
L 391.140103 -413.098934 
L 393.377407 -413.329229 
L 395.614711 -413.554235 
L 397.852015 -413.774073 
L 400.089319 -413.988863 
L 402.326623 -414.198719 
L 404.563927 -414.403756 
L 406.801231 -414.604084 
L 409.038535 -414.799811 
L 411.27584 -414.991043 
L 413.513144 -415.177883 
L 415.750448 -415.360431 
L 417.987752 -415.538788 
L 420.225056 -415.713048 
L 422.46236 -415.883306 
L 424.699664 -416.049653 
L 426.936968 -416.212181 
L 429.174272 -416.370975 
L 431.411576 -416.526123 
L 433.64888 -416.677707 
L 435.886184 -416.82581 
L 438.123488 -416.970512 
L 440.360793 -417.11189 
L 442.598097 -417.250022 
L 444.835401 -417.384981 
L 447.072705 -417.51684 
L 449.310009 -417.645671 
L 451.547313 -417.771544 
L 453.784617 -417.894525 
L 456.021921 -418.014682 
L 458.259225 -418.132079 
L 460.496529 -418.246781 
L 462.733833 -418.358847 
L 464.971137 -418.468341 
L 467.208441 -418.575319 
L 469.445745 -418.67984 
L 471.68305 -418.781961 
L 473.920354 -418.881737 
L 476.157658 -418.979221 
L 478.394962 -419.074467 
L 480.632266 -419.167524 
L 482.86957 -419.258445 
L 485.106874 -419.347277 
L 487.344178 -419.43407 
L 489.581482 -419.518869 
L 491.818786 -419.60172 
L 494.05609 -419.682669 
L 496.293394 -419.761758 
L 498.530698 -419.839031 
L 500.768003 -419.91453 
L 503.005307 -419.988294 
L 505.242611 -420.060365 
L 507.479915 -420.13078 
L 509.717219 -420.199578 
L 511.954523 -420.266796 
L 514.191827 -420.33247 
L 516.429131 -420.396636 
L 518.666435 -420.459328 
L 520.903739 -420.52058 
L 523.141043 -420.580426 
L 525.378347 -420.638897 
L 527.615651 -420.696025 
L 529.852956 -420.751841 
L 532.09026 -420.806376 
L 534.327564 -420.859658 
L 536.564868 -420.911716 
L 538.802172 -420.962578 
L 541.039476 -421.012273 
L 543.27678 -421.060826 
L 545.514084 -421.108264 
L 547.751388 -421.154612 
L 549.988692 -421.199896 
L 552.225996 -421.24414 
L 554.4633 -421.287368 
L 556.700604 -421.329604 
L 558.937909 -421.370869 
L 561.175213 -421.411186 
L 563.412517 -421.450578 
L 565.649821 -421.489064 
L 567.887125 -421.526667 
L 570.124429 -421.563406 
L 572.361733 -421.599302 
L 574.599037 -421.634373 
L 576.836341 -421.668639 
L 579.073645 -421.702117 
L 581.310949 -421.734827 
L 583.548253 -421.766786 
L 585.785557 -421.79801 
L 588.022861 -421.828518 
L 590.260166 -421.858324 
L 592.49747 -421.887447 
L 594.734774 -421.9159 
L 596.972078 -421.9437 
L 599.209382 -421.970862 
L 601.446686 -421.997399 
L 603.68399 -422.023327 
L 605.921294 -422.04866 
L 608.158598 -422.073411 
L 610.395902 -422.097593 
L 612.633206 -422.12122 
L 614.87051 -422.144305 
L 617.107814 -422.166859 
L 619.345119 -422.188895 
L 621.582423 -422.210426 
L 623.819727 -422.231461 
L 626.057031 -422.252014 
L 628.294335 -422.272094 
L 630.531639 -422.291714 
L 632.768943 -422.310883 
L 635.006247 -422.329611 
L 637.243551 -422.34791 
L 639.480855 -422.365788 
L 641.718159 -422.383255 
L 643.955463 -422.400322 
L 646.192767 -422.416996 
L 648.430072 -422.433288 
L 650.667376 -422.449205 
L 652.90468 -422.464757 
L 655.141984 -422.479951 
L 657.379288 -422.494797 
L 659.616592 -422.509302 
L 661.853896 -422.523473 
L 664.0912 -422.537319 
L 666.328504 -422.550847 
L 668.565808 -422.564065 
L 670.803112 -422.576979 
L 673.040416 -422.589596 
L 675.27772 -422.601923 
L 677.515024 -422.613968 
L 679.752329 -422.625736 
L 681.989633 -422.637233 
L 684.226937 -422.648466 
L 686.464241 -422.659442 
L 688.701545 -422.670165 
L 690.938849 -422.680642 
L 693.176153 -422.690879 
L 695.413457 -422.70088 
L 697.650761 -422.710652 
L 699.888065 -422.720199 
L 702.125369 -422.729527 
L 704.362673 -422.738641 
L 706.599977 -422.747545 
L 708.837282 -422.756245 
L 711.074586 -422.764745 
L 713.31189 -422.77305 
L 715.549194 -422.781164 
L 717.786498 -422.789092 
L 720.023802 -422.796838 
L 722.261106 -422.804406 
L 724.49841 -422.8118 
L 726.735714 -422.819024 
L 728.973018 -422.826082 
L 731.210322 -422.832978 
L 733.447626 -422.839716 
L 735.68493 -422.846299 
L 737.922235 -422.852731 
L 740.159539 -422.859015 
L 742.396843 -422.865155 
L 744.634147 -422.871154 
L 746.871451 -422.877015 
L 749.108755 -422.882742 
L 751.346059 -422.888337 
L 753.583363 -422.893803 
L 755.820667 -422.899144 
L 758.057971 -422.904362 
L 760.295275 -422.90946 
L 762.532579 -422.914442 
L 764.769883 -422.919309 
L 767.007187 -422.924064 
L 767.007187 -412.366682 
L 767.007187 -412.366682 
L 764.769883 -412.247979 
L 762.532579 -412.127967 
L 760.295275 -412.006631 
L 758.057971 -411.883956 
L 755.820667 -411.759927 
L 753.583363 -411.634531 
L 751.346059 -411.507751 
L 749.108755 -411.379572 
L 746.871451 -411.249979 
L 744.634147 -411.118956 
L 742.396843 -410.986488 
L 740.159539 -410.852559 
L 737.922235 -410.717152 
L 735.68493 -410.580251 
L 733.447626 -410.44184 
L 731.210322 -410.301902 
L 728.973018 -410.16042 
L 726.735714 -410.017378 
L 724.49841 -409.872757 
L 722.261106 -409.72654 
L 720.023802 -409.578711 
L 717.786498 -409.429251 
L 715.549194 -409.278142 
L 713.31189 -409.125365 
L 711.074586 -408.970904 
L 708.837282 -408.814738 
L 706.599977 -408.656849 
L 704.362673 -408.497219 
L 702.125369 -408.335828 
L 699.888065 -408.172655 
L 697.650761 -408.007683 
L 695.413457 -407.840891 
L 693.176153 -407.672259 
L 690.938849 -407.501766 
L 688.701545 -407.329393 
L 686.464241 -407.155118 
L 684.226937 -406.97892 
L 681.989633 -406.800778 
L 679.752329 -406.620671 
L 677.515024 -406.438577 
L 675.27772 -406.254474 
L 673.040416 -406.06834 
L 670.803112 -405.880153 
L 668.565808 -405.689889 
L 666.328504 -405.497527 
L 664.0912 -405.303042 
L 661.853896 -405.106412 
L 659.616592 -404.907612 
L 657.379288 -404.70662 
L 655.141984 -404.503409 
L 652.90468 -404.297957 
L 650.667376 -404.090239 
L 648.430072 -403.880229 
L 646.192767 -403.667902 
L 643.955463 -403.453232 
L 641.718159 -403.236194 
L 639.480855 -403.016762 
L 637.243551 -402.794909 
L 635.006247 -402.570609 
L 632.768943 -402.343834 
L 630.531639 -402.114557 
L 628.294335 -401.88275 
L 626.057031 -401.648387 
L 623.819727 -401.411438 
L 621.582423 -401.171874 
L 619.345119 -400.929668 
L 617.107814 -400.68479 
L 614.87051 -400.43721 
L 612.633206 -400.186899 
L 610.395902 -399.933826 
L 608.158598 -399.677962 
L 605.921294 -399.419275 
L 603.68399 -399.157733 
L 601.446686 -398.893307 
L 599.209382 -398.625963 
L 596.972078 -398.35567 
L 594.734774 -398.082395 
L 592.49747 -397.806105 
L 590.260166 -397.526767 
L 588.022861 -397.244347 
L 585.785557 -396.958812 
L 583.548253 -396.670126 
L 581.310949 -396.378256 
L 579.073645 -396.083166 
L 576.836341 -395.78482 
L 574.599037 -395.483183 
L 572.361733 -395.178218 
L 570.124429 -394.869888 
L 567.887125 -394.558157 
L 565.649821 -394.242987 
L 563.412517 -393.92434 
L 561.175213 -393.602178 
L 558.937909 -393.276462 
L 556.700604 -392.947152 
L 554.4633 -392.614209 
L 552.225996 -392.277593 
L 549.988692 -391.937263 
L 547.751388 -391.593179 
L 545.514084 -391.245299 
L 543.27678 -390.89358 
L 541.039476 -390.537982 
L 538.802172 -390.178461 
L 536.564868 -389.814973 
L 534.327564 -389.447475 
L 532.09026 -389.075923 
L 529.852956 -388.700272 
L 527.615651 -388.320477 
L 525.378347 -387.936492 
L 523.141043 -387.54827 
L 520.903739 -387.155766 
L 518.666435 -386.758931 
L 516.429131 -386.357718 
L 514.191827 -385.95208 
L 511.954523 -385.541966 
L 509.717219 -385.127327 
L 507.479915 -384.708114 
L 505.242611 -384.284277 
L 503.005307 -383.855763 
L 500.768003 -383.422522 
L 498.530698 -382.984502 
L 496.293394 -382.541649 
L 494.05609 -382.093911 
L 491.818786 -381.641233 
L 489.581482 -381.18356 
L 487.344178 -380.720839 
L 485.106874 -380.253013 
L 482.86957 -379.780026 
L 480.632266 -379.301821 
L 478.394962 -378.81834 
L 476.157658 -378.329525 
L 473.920354 -377.835318 
L 471.68305 -377.335658 
L 469.445745 -376.830486 
L 467.208441 -376.319741 
L 464.971137 -375.803361 
L 462.733833 -375.281284 
L 460.496529 -374.753448 
L 458.259225 -374.219789 
L 456.021921 -373.680242 
L 453.784617 -373.134743 
L 451.547313 -372.583225 
L 449.310009 -372.025623 
L 447.072705 -371.46187 
L 444.835401 -370.891897 
L 442.598097 -370.315636 
L 440.360793 -369.733018 
L 438.123488 -369.143972 
L 435.886184 -368.548428 
L 433.64888 -367.946314 
L 431.411576 -367.337556 
L 429.174272 -366.722083 
L 426.936968 -366.09982 
L 424.699664 -365.470692 
L 422.46236 -364.834624 
L 420.225056 -364.191538 
L 417.987752 -363.541357 
L 415.750448 -362.884004 
L 413.513144 -362.219398 
L 411.27584 -361.547461 
L 409.038535 -360.86811 
L 406.801231 -360.181265 
L 404.563927 -359.486842 
L 402.326623 -358.784759 
L 400.089319 -358.074929 
L 397.852015 -357.357269 
L 395.614711 -356.631692 
L 393.377407 -355.898109 
L 391.140103 -355.156434 
L 388.902799 -354.406576 
L 386.665495 -353.648446 
L 384.428191 -352.881952 
L 382.190887 -352.107002 
L 379.953582 -351.323503 
L 377.716278 -350.531359 
L 375.478974 -349.730477 
L 373.24167 -348.920759 
L 371.004366 -348.102108 
L 368.767062 -347.274426 
L 366.529758 -346.437613 
L 364.292454 -345.591567 
L 362.05515 -344.736188 
L 359.817846 -343.871372 
L 357.580542 -342.997016 
L 355.343238 -342.113013 
L 353.105934 -341.219258 
L 350.86863 -340.315643 
L 348.631325 -339.402059 
L 346.394021 -338.478396 
L 344.156717 -337.544543 
L 341.919413 -336.600387 
L 339.682109 -335.645816 
L 337.444805 -334.680713 
L 335.207501 -333.704963 
L 332.970197 -332.718449 
L 330.732893 -331.721051 
L 328.495589 -330.712649 
L 326.258285 -329.693123 
L 324.020981 -328.662349 
L 321.783677 -327.620204 
L 319.546372 -326.566561 
L 317.309068 -325.501294 
L 315.071764 -324.424275 
L 312.83446 -323.335375 
L 310.597156 -322.234461 
L 308.359852 -321.121401 
L 306.122548 -319.996063 
L 303.885244 -318.858309 
L 301.64794 -317.708003 
L 299.410636 -316.545007 
L 297.173332 -315.369181 
L 294.936028 -314.180382 
L 292.698724 -312.978469 
L 290.461419 -311.763295 
L 288.224115 -310.534716 
L 285.986811 -309.292583 
L 283.749507 -308.036746 
L 281.512203 -306.767055 
L 279.274899 -305.483356 
L 277.037595 -304.185495 
L 274.800291 -302.873316 
L 272.562987 -301.546661 
L 270.325683 -300.20537 
L 268.088379 -298.849281 
L 265.851075 -297.478232 
L 263.613771 -296.092057 
L 261.376466 -294.69059 
L 259.139162 -293.273661 
L 256.901858 -291.8411 
L 254.664554 -290.392736 
L 252.42725 -288.928392 
L 250.189946 -287.447894 
L 247.952642 -285.951062 
L 245.715338 -284.437717 
L 243.478034 -282.907677 
L 241.24073 -281.360756 
L 239.003426 -279.79677 
L 236.766122 -278.21553 
L 234.528818 -276.616845 
L 232.291514 -275.000523 
L 230.054209 -273.36637 
L 227.816905 -271.714188 
L 225.579601 -270.043779 
L 223.342297 -268.354942 
L 221.104993 -266.647473 
L 218.867689 -264.921167 
L 216.630385 -263.175816 
L 214.393081 -261.41121 
L 212.155777 -259.627137 
L 209.918473 -257.823381 
L 207.681169 -255.999726 
L 205.443865 -254.155952 
L 203.206561 -252.291837 
L 200.969256 -250.407157 
L 198.731952 -248.501685 
L 196.494648 -246.575191 
L 194.257344 -244.627444 
L 192.02004 -242.658209 
L 189.782736 -240.667248 
L 187.545432 -238.654323 
L 185.308128 -236.619191 
L 183.070824 -234.561608 
L 180.83352 -232.481324 
L 178.596216 -230.37809 
L 176.358912 -228.251653 
L 174.121608 -226.101757 
L 171.884303 -223.928143 
L 169.646999 -221.730549 
L 167.409695 -219.508711 
L 165.172391 -217.262361 
L 162.935087 -214.991228 
L 160.697783 -212.69504 
L 158.460479 -210.373521 
L 156.223175 -208.026389 
L 153.985871 -205.653364 
L 151.748567 -203.254159 
L 149.511263 -200.828485 
L 147.273959 -198.376051 
L 145.036655 -195.896562 
L 142.799351 -193.389718 
L 140.562046 -190.855218 
L 138.324742 -188.292757 
L 136.087438 -185.702026 
L 133.850134 -183.082714 
L 131.61283 -180.434505 
L 129.375526 -177.757081 
L 127.138222 -175.050118 
L 124.900918 -172.313292 
L 122.663614 -169.546273 
L 120.42631 -166.748727 
L 118.189006 -163.920319 
L 115.951702 -161.060706 
L 113.714398 -158.169546 
L 111.477093 -155.246491 
L 109.239789 -152.291187 
L 107.002485 -149.30328 
L 104.765181 -146.28241 
L 102.527877 -143.228213 
L 100.290573 -140.140321 
L 98.053269 -137.018363 
L 95.815965 -133.861963 
L 93.578661 -130.670741 
L 91.341357 -127.444313 
L 89.104053 -124.18229 
L 86.866749 -120.88428 
L 84.629445 -117.549886 
L 82.39214 -114.178706 
L 80.154836 -110.770335 
L 77.917532 -107.324361 
L 75.680228 -103.840371 
L 73.442924 -100.317945 
L 71.20562 -96.756659 
L 68.968316 -93.156084 
L 66.731012 -89.515787 
L 64.493708 -85.835329 
L 62.256404 -82.114268 
L 60.0191 -78.352155 
L 57.781796 -74.548538 
L 55.544492 -70.702959 
L 53.307188 -66.814954 
z
" style="stroke: #3b82f6; stroke-opacity: 0.12"/>
    </defs>
    <g clip-path="url(#p5e799c8a02)">
     <use xlink:href="#m77352ba5d2" x="0" y="467.536875" style="fill: #3b82f6; fill-opacity: 0.12; stroke: #3b82f6; stroke-opacity: 0.12"/>
    </g>
   </g>
   <g id="matplotlib.axis_1">
    <g id="xtick_1">
     <g id="line2d_1">
      <path d="M 155.26433 421.077187 
L 155.26433 36.877187 
" clip-path="url(#p5e799c8a02)" style="fill: none; stroke: #233248; stroke-opacity: 0.55; stroke-width: 0.8; stroke-linecap: square"/>
     </g>
     <g id="line2d_2">
      <defs>
       <path id="m3efd1fc49a" d="M 0 0 
L 0 3.5 
" style="stroke: #cbd5e1; stroke-width: 0.8"/>
      </defs>
      <g>
       <use xlink:href="#m3efd1fc49a" x="155.26433" y="421.077187" style="fill: #cbd5e1; stroke: #cbd5e1; stroke-width: 0.8"/>
      </g>
     </g>
     <g id="text_1">
      <!-- 10 -->
      <g style="fill: #cbd5e1" transform="translate(148.26558 436.435469) scale(0.11 -0.11)">
       <defs>
        <path id="DejaVuSans-31" d="M 794 531 
L 1825 531 
L 1825 4091 
L 703 3866 
L 703 4441 
L 1819 4666 
L 2450 4666 
L 2450 531 
L 3481 531 
L 3481 0 
L 794 0 
L 794 531 
z
" transform="scale(0.015625)"/>
        <path id="DejaVuSans-30" d="M 2034 4250 
Q 1547 4250 1301 3770 
Q 1056 3291 1056 2328 
Q 1056 1369 1301 889 
Q 1547 409 2034 409 
Q 2525 409 2770 889 
Q 3016 1369 3016 2328 
Q 3016 3291 2770 3770 
Q 2525 4250 2034 4250 
z
M 2034 4750 
Q 2819 4750 3233 4129 
Q 3647 3509 3647 2328 
Q 3647 1150 3233 529 
Q 2819 -91 2034 -91 
Q 1250 -91 836 529 
Q 422 1150 422 2328 
Q 422 3509 836 4129 
Q 1250 4750 2034 4750 
z
" transform="scale(0.015625)"/>
       </defs>
       <use xlink:href="#DejaVuSans-31"/>
       <use xlink:href="#DejaVuSans-30" transform="translate(63.623047 0)"/>
      </g>
     </g>
    </g>
    <g id="xtick_2">
     <g id="line2d_3">
      <path d="M 268.550045 421.077187 
L 268.550045 36.877187 
" clip-path="url(#p5e799c8a02)" style="fill: none; stroke: #233248; stroke-opacity: 0.55; stroke-width: 0.8; stroke-linecap: square"/>
     </g>
     <g id="line2d_4">
      <g>
       <use xlink:href="#m3efd1fc49a" x="268.550045" y="421.077187" style="fill: #cbd5e1; stroke: #cbd5e1; stroke-width: 0.8"/>
      </g>
     </g>
     <g id="text_2">
      <!-- 20 -->
      <g style="fill: #cbd5e1" transform="translate(261.551295 436.435469) scale(0.11 -0.11)">
       <defs>
        <path id="DejaVuSans-32" d="M 1228 531 
L 3431 531 
L 3431 0 
L 469 0 
L 469 531 
Q 828 903 1448 1529 
Q 2069 2156 2228 2338 
Q 2531 2678 2651 2914 
Q 2772 3150 2772 3378 
Q 2772 3750 2511 3984 
Q 2250 4219 1831 4219 
Q 1534 4219 1204 4116 
Q 875 4013 500 3803 
L 500 4441 
Q 881 4594 1212 4672 
Q 1544 4750 1819 4750 
Q 2544 4750 2975 4387 
Q 3406 4025 3406 3419 
Q 3406 3131 3298 2873 
Q 3191 2616 2906 2266 
Q 2828 2175 2409 1742 
Q 1991 1309 1228 531 
z
" transform="scale(0.015625)"/>
       </defs>
       <use xlink:href="#DejaVuSans-32"/>
       <use xlink:href="#DejaVuSans-30" transform="translate(63.623047 0)"/>
      </g>
     </g>
    </g>
    <g id="xtick_3">
     <g id="line2d_5">
      <path d="M 381.835759 421.077187 
L 381.835759 36.877187 
" clip-path="url(#p5e799c8a02)" style="fill: none; stroke: #233248; stroke-opacity: 0.55; stroke-width: 0.8; stroke-linecap: square"/>
     </g>
     <g id="line2d_6">
      <g>
       <use xlink:href="#m3efd1fc49a" x="381.835759" y="421.077187" style="fill: #cbd5e1; stroke: #cbd5e1; stroke-width: 0.8"/>
      </g>
     </g>
     <g id="text_3">
      <!-- 30 -->
      <g style="fill: #cbd5e1" transform="translate(374.837009 436.435469) scale(0.11 -0.11)">
       <defs>
        <path id="DejaVuSans-33" d="M 2597 2516 
Q 3050 2419 3304 2112 
Q 3559 1806 3559 1356 
Q 3559 666 3084 287 
Q 2609 -91 1734 -91 
Q 1441 -91 1130 -33 
Q 819 25 488 141 
L 488 750 
Q 750 597 1062 519 
Q 1375 441 1716 441 
Q 2309 441 2620 675 
Q 2931 909 2931 1356 
Q 2931 1769 2642 2001 
Q 2353 2234 1838 2234 
L 1294 2234 
L 1294 2753 
L 1863 2753 
Q 2328 2753 2575 2939 
Q 2822 3125 2822 3475 
Q 2822 3834 2567 4026 
Q 2313 4219 1838 4219 
Q 1578 4219 1281 4162 
Q 984 4106 628 3988 
L 628 4550 
Q 988 4650 1302 4700 
Q 1616 4750 1894 4750 
Q 2613 4750 3031 4423 
Q 3450 4097 3450 3541 
Q 3450 3153 3228 2886 
Q 3006 2619 2597 2516 
z
" transform="scale(0.015625)"/>
       </defs>
       <use xlink:href="#DejaVuSans-33"/>
       <use xlink:href="#DejaVuSans-30" transform="translate(63.623047 0)"/>
      </g>
     </g>
    </g>
    <g id="xtick_4">
     <g id="line2d_7">
      <path d="M 495.121473 421.077187 
L 495.121473 36.877187 
" clip-path="url(#p5e799c8a02)" style="fill: none; stroke: #233248; stroke-opacity: 0.55; stroke-width: 0.8; stroke-linecap: square"/>
     </g>
     <g id="line2d_8">
      <g>
       <use xlink:href="#m3efd1fc49a" x="495.121473" y="421.077187" style="fill: #cbd5e1; stroke: #cbd5e1; stroke-width: 0.8"/>
      </g>
     </g>
     <g id="text_4">
      <!-- 40 -->
      <g style="fill: #cbd5e1" transform="translate(488.122723 436.435469) scale(0.11 -0.11)">
       <defs>
        <path id="DejaVuSans-34" d="M 2419 4116 
L 825 1625 
L 2419 1625 
L 2419 4116 
z
M 2253 4666 
L 3047 4666 
L 3047 1625 
L 3713 1625 
L 3713 1100 
L 3047 1100 
L 3047 0 
L 2419 0 
L 2419 1100 
L 313 1100 
L 313 1709 
L 2253 4666 
z
" transform="scale(0.015625)"/>
       </defs>
       <use xlink:href="#DejaVuSans-34"/>
       <use xlink:href="#DejaVuSans-30" transform="translate(63.623047 0)"/>
      </g>
     </g>
    </g>
    <g id="xtick_5">
     <g id="line2d_9">
      <path d="M 608.407187 421.077187 
L 608.407187 36.877187 
" clip-path="url(#p5e799c8a02)" style="fill: none; stroke: #233248; stroke-opacity: 0.55; stroke-width: 0.8; stroke-linecap: square"/>
     </g>
     <g id="line2d_10">
      <g>
       <use xlink:href="#m3efd1fc49a" x="608.407187" y="421.077187" style="fill: #cbd5e1; stroke: #cbd5e1; stroke-width: 0.8"/>
      </g>
     </g>
     <g id="text_5">
      <!-- 50 -->
      <g style="fill: #cbd5e1" transform="translate(601.408437 436.435469) scale(0.11 -0.11)">
       <defs>
        <path id="DejaVuSans-35" d="M 691 4666 
L 3169 4666 
L 3169 4134 
L 1269 4134 
L 1269 2991 
Q 1406 3038 1543 3061 
Q 1681 3084 1819 3084 
Q 2600 3084 3056 2656 
Q 3513 2228 3513 1497 
Q 3513 744 3044 326 
Q 2575 -91 1722 -91 
Q 1428 -91 1123 -41 
Q 819 9 494 109 
L 494 744 
Q 775 591 1075 516 
Q 1375 441 1709 441 
Q 2250 441 2565 725 
Q 2881 1009 2881 1497 
Q 2881 1984 2565 2268 
Q 2250 2553 1709 2553 
Q 1456 2553 1204 2497 
Q 953 2441 691 2322 
L 691 4666 
z
" transform="scale(0.015625)"/>
       </defs>
       <use xlink:href="#DejaVuSans-35"/>
       <use xlink:href="#DejaVuSans-30" transform="translate(63.623047 0)"/>
      </g>
     </g>
    </g>
    <g id="xtick_6">
     <g id="line2d_11">
      <path d="M 721.692902 421.077187 
L 721.692902 36.877187 
" clip-path="url(#p5e799c8a02)" style="fill: none; stroke: #233248; stroke-opacity: 0.55; stroke-width: 0.8; stroke-linecap: square"/>
     </g>
     <g id="line2d_12">
      <g>
       <use xlink:href="#m3efd1fc49a" x="721.692902" y="421.077187" style="fill: #cbd5e1; stroke: #cbd5e1; stroke-width: 0.8"/>
      </g>
     </g>
     <g id="text_6">
      <!-- 60 -->
      <g style="fill: #cbd5e1" transform="translate(714.694152 436.435469) scale(0.11 -0.11)">
       <defs>
        <path id="DejaVuSans-36" d="M 2113 2584 
Q 1688 2584 1439 2293 
Q 1191 2003 1191 1497 
Q 1191 994 1439 701 
Q 1688 409 2113 409 
Q 2538 409 2786 701 
Q 3034 994 3034 1497 
Q 3034 2003 2786 2293 
Q 2538 2584 2113 2584 
z
M 3366 4563 
L 3366 3988 
Q 3128 4100 2886 4159 
Q 2644 4219 2406 4219 
Q 1781 4219 1451 3797 
Q 1122 3375 1075 2522 
Q 1259 2794 1537 2939 
Q 1816 3084 2150 3084 
Q 2853 3084 3261 2657 
Q 3669 2231 3669 1497 
Q 3669 778 3244 343 
Q 2819 -91 2113 -91 
Q 1303 -91 875 529 
Q 447 1150 447 2328 
Q 447 3434 972 4092 
Q 1497 4750 2381 4750 
Q 2619 4750 2861 4703 
Q 3103 4656 3366 4563 
z
" transform="scale(0.015625)"/>
       </defs>
       <use xlink:href="#DejaVuSans-36"/>
       <use xlink:href="#DejaVuSans-30" transform="translate(63.623047 0)"/>
      </g>
     </g>
    </g>
    <g id="text_7">
     <!-- Inference-time loop count -->
     <g style="fill: #e2e8f0" transform="translate(332.684062 457.84125) scale(0.12 -0.12)">
      <defs>
       <path id="DejaVuSans-49" d="M 628 4666 
L 1259 4666 
L 1259 0 
L 628 0 
L 628 4666 
z
" transform="scale(0.015625)"/>
       <path id="DejaVuSans-6e" d="M 3513 2113 
L 3513 0 
L 2938 0 
L 2938 2094 
Q 2938 2591 2744 2837 
Q 2550 3084 2163 3084 
Q 1697 3084 1428 2787 
Q 1159 2491 1159 1978 
L 1159 0 
L 581 0 
L 581 3500 
L 1159 3500 
L 1159 2956 
Q 1366 3272 1645 3428 
Q 1925 3584 2291 3584 
Q 2894 3584 3203 3211 
Q 3513 2838 3513 2113 
z
" transform="scale(0.015625)"/>
       <path id="DejaVuSans-66" d="M 2375 4863 
L 2375 4384 
L 1825 4384 
Q 1516 4384 1395 4259 
Q 1275 4134 1275 3809 
L 1275 3500 
L 2222 3500 
L 2222 3053 
L 1275 3053 
L 1275 0 
L 697 0 
L 697 3053 
L 147 3053 
L 147 3500 
L 697 3500 
L 697 3744 
Q 697 4328 969 4595 
Q 1241 4863 1831 4863 
L 2375 4863 
z
" transform="scale(0.015625)"/>
       <path id="DejaVuSans-65" d="M 3597 1894 
L 3597 1613 
L 953 1613 
Q 991 1019 1311 708 
Q 1631 397 2203 397 
Q 2534 397 2845 478 
Q 3156 559 3463 722 
L 3463 178 
Q 3153 47 2828 -22 
Q 2503 -91 2169 -91 
Q 1331 -91 842 396 
Q 353 884 353 1716 
Q 353 2575 817 3079 
Q 1281 3584 2069 3584 
Q 2775 3584 3186 3129 
Q 3597 2675 3597 1894 
z
M 3022 2063 
Q 3016 2534 2758 2815 
Q 2500 3097 2075 3097 
Q 1594 3097 1305 2825 
Q 1016 2553 972 2059 
L 3022 2063 
z
" transform="scale(0.015625)"/>
       <path id="DejaVuSans-72" d="M 2631 2963 
Q 2534 3019 2420 3045 
Q 2306 3072 2169 3072 
Q 1681 3072 1420 2755 
Q 1159 2438 1159 1844 
L 1159 0 
L 581 0 
L 581 3500 
L 1159 3500 
L 1159 2956 
Q 1341 3275 1631 3429 
Q 1922 3584 2338 3584 
Q 2397 3584 2469 3576 
Q 2541 3569 2628 3553 
L 2631 2963 
z
" transform="scale(0.015625)"/>
       <path id="DejaVuSans-63" d="M 3122 3366 
L 3122 2828 
Q 2878 2963 2633 3030 
Q 2388 3097 2138 3097 
Q 1578 3097 1268 2742 
Q 959 2388 959 1747 
Q 959 1106 1268 751 
Q 1578 397 2138 397 
Q 2388 397 2633 464 
Q 2878 531 3122 666 
L 3122 134 
Q 2881 22 2623 -34 
Q 2366 -91 2075 -91 
Q 1284 -91 818 406 
Q 353 903 353 1747 
Q 353 2603 823 3093 
Q 1294 3584 2113 3584 
Q 2378 3584 2631 3529 
Q 2884 3475 3122 3366 
z
" transform="scale(0.015625)"/>
       <path id="DejaVuSans-2d" d="M 313 2009 
L 1997 2009 
L 1997 1497 
L 313 1497 
L 313 2009 
z
" transform="scale(0.015625)"/>
       <path id="DejaVuSans-74" d="M 1172 4494 
L 1172 3500 
L 2356 3500 
L 2356 3053 
L 1172 3053 
L 1172 1153 
Q 1172 725 1289 603 
Q 1406 481 1766 481 
L 2356 481 
L 2356 0 
L 1766 0 
Q 1100 0 847 248 
Q 594 497 594 1153 
L 594 3053 
L 172 3053 
L 172 3500 
L 594 3500 
L 594 4494 
L 1172 4494 
z
" transform="scale(0.015625)"/>
       <path id="DejaVuSans-69" d="M 603 3500 
L 1178 3500 
L 1178 0 
L 603 0 
L 603 3500 
z
M 603 4863 
L 1178 4863 
L 1178 4134 
L 603 4134 
L 603 4863 
z
" transform="scale(0.015625)"/>
       <path id="DejaVuSans-6d" d="M 3328 2828 
Q 3544 3216 3844 3400 
Q 4144 3584 4550 3584 
Q 5097 3584 5394 3201 
Q 5691 2819 5691 2113 
L 5691 0 
L 5113 0 
L 5113 2094 
Q 5113 2597 4934 2840 
Q 4756 3084 4391 3084 
Q 3944 3084 3684 2787 
Q 3425 2491 3425 1978 
L 3425 0 
L 2847 0 
L 2847 2094 
Q 2847 2600 2669 2842 
Q 2491 3084 2119 3084 
Q 1678 3084 1418 2786 
Q 1159 2488 1159 1978 
L 1159 0 
L 581 0 
L 581 3500 
L 1159 3500 
L 1159 2956 
Q 1356 3278 1631 3431 
Q 1906 3584 2284 3584 
Q 2666 3584 2933 3390 
Q 3200 3197 3328 2828 
z
" transform="scale(0.015625)"/>
       <path id="DejaVuSans-20" transform="scale(0.015625)"/>
       <path id="DejaVuSans-6c" d="M 603 4863 
L 1178 4863 
L 1178 0 
L 603 0 
L 603 4863 
z
" transform="scale(0.015625)"/>
       <path id="DejaVuSans-6f" d="M 1959 3097 
Q 1497 3097 1228 2736 
Q 959 2375 959 1747 
Q 959 1119 1226 758 
Q 1494 397 1959 397 
Q 2419 397 2687 759 
Q 2956 1122 2956 1747 
Q 2956 2369 2687 2733 
Q 2419 3097 1959 3097 
z
M 1959 3584 
Q 2709 3584 3137 3096 
Q 3566 2609 3566 1747 
Q 3566 888 3137 398 
Q 2709 -91 1959 -91 
Q 1206 -91 779 398 
Q 353 888 353 1747 
Q 353 2609 779 3096 
Q 1206 3584 1959 3584 
z
" transform="scale(0.015625)"/>
       <path id="DejaVuSans-70" d="M 1159 525 
L 1159 -1331 
L 581 -1331 
L 581 3500 
L 1159 3500 
L 1159 2969 
Q 1341 3281 1617 3432 
Q 1894 3584 2278 3584 
Q 2916 3584 3314 3078 
Q 3713 2572 3713 1747 
Q 3713 922 3314 415 
Q 2916 -91 2278 -91 
Q 1894 -91 1617 61 
Q 1341 213 1159 525 
z
M 3116 1747 
Q 3116 2381 2855 2742 
Q 2594 3103 2138 3103 
Q 1681 3103 1420 2742 
Q 1159 2381 1159 1747 
Q 1159 1113 1420 752 
Q 1681 391 2138 391 
Q 2594 391 2855 752 
Q 3116 1113 3116 1747 
z
" transform="scale(0.015625)"/>
       <path id="DejaVuSans-75" d="M 544 1381 
L 544 3500 
L 1119 3500 
L 1119 1403 
Q 1119 906 1312 657 
Q 1506 409 1894 409 
Q 2359 409 2629 706 
Q 2900 1003 2900 1516 
L 2900 3500 
L 3475 3500 
L 3475 0 
L 2900 0 
L 2900 538 
Q 2691 219 2414 64 
Q 2138 -91 1772 -91 
Q 1169 -91 856 284 
Q 544 659 544 1381 
z
M 1991 3584 
L 1991 3584 
z
" transform="scale(0.015625)"/>
      </defs>
      <use xlink:href="#DejaVuSans-49"/>
      <use xlink:href="#DejaVuSans-6e" transform="translate(29.492188 0)"/>
      <use xlink:href="#DejaVuSans-66" transform="translate(92.871094 0)"/>
      <use xlink:href="#DejaVuSans-65" transform="translate(128.076172 0)"/>
      <use xlink:href="#DejaVuSans-72" transform="translate(189.599609 0)"/>
      <use xlink:href="#DejaVuSans-65" transform="translate(228.462891 0)"/>
      <use xlink:href="#DejaVuSans-6e" transform="translate(289.986328 0)"/>
      <use xlink:href="#DejaVuSans-63" transform="translate(353.365234 0)"/>
      <use xlink:href="#DejaVuSans-65" transform="translate(408.345703 0)"/>
      <use xlink:href="#DejaVuSans-2d" transform="translate(469.869141 0)"/>
      <use xlink:href="#DejaVuSans-74" transform="translate(505.953125 0)"/>
      <use xlink:href="#DejaVuSans-69" transform="translate(545.162109 0)"/>
      <use xlink:href="#DejaVuSans-6d" transform="translate(572.945312 0)"/>
      <use xlink:href="#DejaVuSans-65" transform="translate(670.357422 0)"/>
      <use xlink:href="#DejaVuSans-20" transform="translate(731.880859 0)"/>
      <use xlink:href="#DejaVuSans-6c" transform="translate(763.667969 0)"/>
      <use xlink:href="#DejaVuSans-6f" transform="translate(791.451172 0)"/>
      <use xlink:href="#DejaVuSans-6f" transform="translate(852.632812 0)"/>
      <use xlink:href="#DejaVuSans-70" transform="translate(913.814453 0)"/>
      <use xlink:href="#DejaVuSans-20" transform="translate(977.291016 0)"/>
      <use xlink:href="#DejaVuSans-63" transform="translate(1009.078125 0)"/>
      <use xlink:href="#DejaVuSans-6f" transform="translate(1064.058594 0)"/>
      <use xlink:href="#DejaVuSans-75" transform="translate(1125.240234 0)"/>
      <use xlink:href="#DejaVuSans-6e" transform="translate(1188.619141 0)"/>
      <use xlink:href="#DejaVuSans-74" transform="translate(1251.998047 0)"/>
     </g>
    </g>
   </g>
   <g id="matplotlib.axis_2">
    <g id="ytick_1">
     <g id="line2d_13">
      <path d="M 53.307188 421.077187 
L 767.007187 421.077187 
" clip-path="url(#p5e799c8a02)" style="fill: none; stroke: #233248; stroke-opacity: 0.55; stroke-width: 0.8; stroke-linecap: square"/>
     </g>
     <g id="line2d_14">
      <defs>
       <path id="m9850873244" d="M 0 0 
L -3.5 0 
" style="stroke: #cbd5e1; stroke-width: 0.8"/>
      </defs>
      <g>
       <use xlink:href="#m9850873244" x="53.307188" y="421.077187" style="fill: #cbd5e1; stroke: #cbd5e1; stroke-width: 0.8"/>
      </g>
     </g>
     <g id="text_8">
      <!-- 0.0 -->
      <g style="fill: #cbd5e1" transform="translate(28.81375 425.256328) scale(0.11 -0.11)">
       <defs>
        <path id="DejaVuSans-2e" d="M 684 794 
L 1344 794 
L 1344 0 
L 684 0 
L 684 794 
z
" transform="scale(0.015625)"/>
       </defs>
       <use xlink:href="#DejaVuSans-30"/>
       <use xlink:href="#DejaVuSans-2e" transform="translate(63.623047 0)"/>
       <use xlink:href="#DejaVuSans-30" transform="translate(95.410156 0)"/>
      </g>
     </g>
    </g>
    <g id="ytick_2">
     <g id="line2d_15">
      <path d="M 53.307188 345.743854 
L 767.007187 345.743854 
" clip-path="url(#p5e799c8a02)" style="fill: none; stroke: #233248; stroke-opacity: 0.55; stroke-width: 0.8; stroke-linecap: square"/>
     </g>
     <g id="line2d_16">
      <g>
       <use xlink:href="#m9850873244" x="53.307188" y="345.743854" style="fill: #cbd5e1; stroke: #cbd5e1; stroke-width: 0.8"/>
      </g>
     </g>
     <g id="text_9">
      <!-- 0.2 -->
      <g style="fill: #cbd5e1" transform="translate(28.81375 349.922995) scale(0.11 -0.11)">
       <use xlink:href="#DejaVuSans-30"/>
       <use xlink:href="#DejaVuSans-2e" transform="translate(63.623047 0)"/>
       <use xlink:href="#DejaVuSans-32" transform="translate(95.410156 0)"/>
      </g>
     </g>
    </g>
    <g id="ytick_3">
     <g id="line2d_17">
      <path d="M 53.307188 270.410521 
L 767.007187 270.410521 
" clip-path="url(#p5e799c8a02)" style="fill: none; stroke: #233248; stroke-opacity: 0.55; stroke-width: 0.8; stroke-linecap: square"/>
     </g>
     <g id="line2d_18">
      <g>
       <use xlink:href="#m9850873244" x="53.307188" y="270.410521" style="fill: #cbd5e1; stroke: #cbd5e1; stroke-width: 0.8"/>
      </g>
     </g>
     <g id="text_10">
      <!-- 0.4 -->
      <g style="fill: #cbd5e1" transform="translate(28.81375 274.589661) scale(0.11 -0.11)">
       <use xlink:href="#DejaVuSans-30"/>
       <use xlink:href="#DejaVuSans-2e" transform="translate(63.623047 0)"/>
       <use xlink:href="#DejaVuSans-34" transform="translate(95.410156 0)"/>
      </g>
     </g>
    </g>
    <g id="ytick_4">
     <g id="line2d_19">
      <path d="M 53.307188 195.077187 
L 767.007187 195.077187 
" clip-path="url(#p5e799c8a02)" style="fill: none; stroke: #233248; stroke-opacity: 0.55; stroke-width: 0.8; stroke-linecap: square"/>
     </g>
     <g id="line2d_20">
      <g>
       <use xlink:href="#m9850873244" x="53.307188" y="195.077187" style="fill: #cbd5e1; stroke: #cbd5e1; stroke-width: 0.8"/>
      </g>
     </g>
     <g id="text_11">
      <!-- 0.6 -->
      <g style="fill: #cbd5e1" transform="translate(28.81375 199.256328) scale(0.11 -0.11)">
       <use xlink:href="#DejaVuSans-30"/>
       <use xlink:href="#DejaVuSans-2e" transform="translate(63.623047 0)"/>
       <use xlink:href="#DejaVuSans-36" transform="translate(95.410156 0)"/>
      </g>
     </g>
    </g>
    <g id="ytick_5">
     <g id="line2d_21">
      <path d="M 53.307188 119.743854 
L 767.007187 119.743854 
" clip-path="url(#p5e799c8a02)" style="fill: none; stroke: #233248; stroke-opacity: 0.55; stroke-width: 0.8; stroke-linecap: square"/>
     </g>
     <g id="line2d_22">
      <g>
       <use xlink:href="#m9850873244" x="53.307188" y="119.743854" style="fill: #cbd5e1; stroke: #cbd5e1; stroke-width: 0.8"/>
      </g>
     </g>
     <g id="text_12">
      <!-- 0.8 -->
      <g style="fill: #cbd5e1" transform="translate(28.81375 123.922995) scale(0.11 -0.11)">
       <defs>
        <path id="DejaVuSans-38" d="M 2034 2216 
Q 1584 2216 1326 1975 
Q 1069 1734 1069 1313 
Q 1069 891 1326 650 
Q 1584 409 2034 409 
Q 2484 409 2743 651 
Q 3003 894 3003 1313 
Q 3003 1734 2745 1975 
Q 2488 2216 2034 2216 
z
M 1403 2484 
Q 997 2584 770 2862 
Q 544 3141 544 3541 
Q 544 4100 942 4425 
Q 1341 4750 2034 4750 
Q 2731 4750 3128 4425 
Q 3525 4100 3525 3541 
Q 3525 3141 3298 2862 
Q 3072 2584 2669 2484 
Q 3125 2378 3379 2068 
Q 3634 1759 3634 1313 
Q 3634 634 3220 271 
Q 2806 -91 2034 -91 
Q 1263 -91 848 271 
Q 434 634 434 1313 
Q 434 1759 690 2068 
Q 947 2378 1403 2484 
z
M 1172 3481 
Q 1172 3119 1398 2916 
Q 1625 2713 2034 2713 
Q 2441 2713 2670 2916 
Q 2900 3119 2900 3481 
Q 2900 3844 2670 4047 
Q 2441 4250 2034 4250 
Q 1625 4250 1398 4047 
Q 1172 3844 1172 3481 
z
" transform="scale(0.015625)"/>
       </defs>
       <use xlink:href="#DejaVuSans-30"/>
       <use xlink:href="#DejaVuSans-2e" transform="translate(63.623047 0)"/>
       <use xlink:href="#DejaVuSans-38" transform="translate(95.410156 0)"/>
      </g>
     </g>
    </g>
    <g id="ytick_6">
     <g id="line2d_23">
      <path d="M 53.307188 44.410521 
L 767.007187 44.410521 
" clip-path="url(#p5e799c8a02)" style="fill: none; stroke: #233248; stroke-opacity: 0.55; stroke-width: 0.8; stroke-linecap: square"/>
     </g>
     <g id="line2d_24">
      <g>
       <use xlink:href="#m9850873244" x="53.307188" y="44.410521" style="fill: #cbd5e1; stroke: #cbd5e1; stroke-width: 0.8"/>
      </g>
     </g>
     <g id="text_13">
      <!-- 1.0 -->
      <g style="fill: #cbd5e1" transform="translate(28.81375 48.589661) scale(0.11 -0.11)">
       <use xlink:href="#DejaVuSans-31"/>
       <use xlink:href="#DejaVuSans-2e" transform="translate(63.623047 0)"/>
       <use xlink:href="#DejaVuSans-30" transform="translate(95.410156 0)"/>
      </g>
     </g>
    </g>
    <g id="text_14">
     <!-- Normalized downstream quality -->
     <g style="fill: #e2e8f0" transform="translate(16.318125 324.555312) rotate(-90) scale(0.12 -0.12)">
      <defs>
       <path id="DejaVuSans-4e" d="M 628 4666 
L 1478 4666 
L 3547 763 
L 3547 4666 
L 4159 4666 
L 4159 0 
L 3309 0 
L 1241 3903 
L 1241 0 
L 628 0 
L 628 4666 
z
" transform="scale(0.015625)"/>
       <path id="DejaVuSans-61" d="M 2194 1759 
Q 1497 1759 1228 1600 
Q 959 1441 959 1056 
Q 959 750 1161 570 
Q 1363 391 1709 391 
Q 2188 391 2477 730 
Q 2766 1069 2766 1631 
L 2766 1759 
L 2194 1759 
z
M 3341 1997 
L 3341 0 
L 2766 0 
L 2766 531 
Q 2569 213 2275 61 
Q 1981 -91 1556 -91 
Q 1019 -91 701 211 
Q 384 513 384 1019 
Q 384 1609 779 1909 
Q 1175 2209 1959 2209 
L 2766 2209 
L 2766 2266 
Q 2766 2663 2505 2880 
Q 2244 3097 1772 3097 
Q 1472 3097 1187 3025 
Q 903 2953 641 2809 
L 641 3341 
Q 956 3463 1253 3523 
Q 1550 3584 1831 3584 
Q 2591 3584 2966 3190 
Q 3341 2797 3341 1997 
z
" transform="scale(0.015625)"/>
       <path id="DejaVuSans-7a" d="M 353 3500 
L 3084 3500 
L 3084 2975 
L 922 459 
L 3084 459 
L 3084 0 
L 275 0 
L 275 525 
L 2438 3041 
L 353 3041 
L 353 3500 
z
" transform="scale(0.015625)"/>
       <path id="DejaVuSans-64" d="M 2906 2969 
L 2906 4863 
L 3481 4863 
L 3481 0 
L 2906 0 
L 2906 525 
Q 2725 213 2448 61 
Q 2172 -91 1784 -91 
Q 1150 -91 751 415 
Q 353 922 353 1747 
Q 353 2572 751 3078 
Q 1150 3584 1784 3584 
Q 2172 3584 2448 3432 
Q 2725 3281 2906 2969 
z
M 947 1747 
Q 947 1113 1208 752 
Q 1469 391 1925 391 
Q 2381 391 2643 752 
Q 2906 1113 2906 1747 
Q 2906 2381 2643 2742 
Q 2381 3103 1925 3103 
Q 1469 3103 1208 2742 
Q 947 2381 947 1747 
z
" transform="scale(0.015625)"/>
       <path id="DejaVuSans-77" d="M 269 3500 
L 844 3500 
L 1563 769 
L 2278 3500 
L 2956 3500 
L 3675 769 
L 4391 3500 
L 4966 3500 
L 4050 0 
L 3372 0 
L 2619 2869 
L 1863 0 
L 1184 0 
L 269 3500 
z
" transform="scale(0.015625)"/>
       <path id="DejaVuSans-73" d="M 2834 3397 
L 2834 2853 
Q 2591 2978 2328 3040 
Q 2066 3103 1784 3103 
Q 1356 3103 1142 2972 
Q 928 2841 928 2578 
Q 928 2378 1081 2264 
Q 1234 2150 1697 2047 
L 1894 2003 
Q 2506 1872 2764 1633 
Q 3022 1394 3022 966 
Q 3022 478 2636 193 
Q 2250 -91 1575 -91 
Q 1294 -91 989 -36 
Q 684 19 347 128 
L 347 722 
Q 666 556 975 473 
Q 1284 391 1588 391 
Q 1994 391 2212 530 
Q 2431 669 2431 922 
Q 2431 1156 2273 1281 
Q 2116 1406 1581 1522 
L 1381 1569 
Q 847 1681 609 1914 
Q 372 2147 372 2553 
Q 372 3047 722 3315 
Q 1072 3584 1716 3584 
Q 2034 3584 2315 3537 
Q 2597 3491 2834 3397 
z
" transform="scale(0.015625)"/>
       <path id="DejaVuSans-71" d="M 947 1747 
Q 947 1113 1208 752 
Q 1469 391 1925 391 
Q 2381 391 2643 752 
Q 2906 1113 2906 1747 
Q 2906 2381 2643 2742 
Q 2381 3103 1925 3103 
Q 1469 3103 1208 2742 
Q 947 2381 947 1747 
z
M 2906 525 
Q 2725 213 2448 61 
Q 2172 -91 1784 -91 
Q 1150 -91 751 415 
Q 353 922 353 1747 
Q 353 2572 751 3078 
Q 1150 3584 1784 3584 
Q 2172 3584 2448 3432 
Q 2725 3281 2906 2969 
L 2906 3500 
L 3481 3500 
L 3481 -1331 
L 2906 -1331 
L 2906 525 
z
" transform="scale(0.015625)"/>
       <path id="DejaVuSans-79" d="M 2059 -325 
Q 1816 -950 1584 -1140 
Q 1353 -1331 966 -1331 
L 506 -1331 
L 506 -850 
L 844 -850 
Q 1081 -850 1212 -737 
Q 1344 -625 1503 -206 
L 1606 56 
L 191 3500 
L 800 3500 
L 1894 763 
L 2988 3500 
L 3597 3500 
L 2059 -325 
z
" transform="scale(0.015625)"/>
      </defs>
      <use xlink:href="#DejaVuSans-4e"/>
      <use xlink:href="#DejaVuSans-6f" transform="translate(74.804688 0)"/>
      <use xlink:href="#DejaVuSans-72" transform="translate(135.986328 0)"/>
      <use xlink:href="#DejaVuSans-6d" transform="translate(175.349609 0)"/>
      <use xlink:href="#DejaVuSans-61" transform="translate(272.761719 0)"/>
      <use xlink:href="#DejaVuSans-6c" transform="translate(334.041016 0)"/>
      <use xlink:href="#DejaVuSans-69" transform="translate(361.824219 0)"/>
      <use xlink:href="#DejaVuSans-7a" transform="translate(389.607422 0)"/>
      <use xlink:href="#DejaVuSans-65" transform="translate(442.097656 0)"/>
      <use xlink:href="#DejaVuSans-64" transform="translate(503.621094 0)"/>
      <use xlink:href="#DejaVuSans-20" transform="translate(567.097656 0)"/>
      <use xlink:href="#DejaVuSans-64" transform="translate(598.884766 0)"/>
      <use xlink:href="#DejaVuSans-6f" transform="translate(662.361328 0)"/>
      <use xlink:href="#DejaVuSans-77" transform="translate(723.542969 0)"/>
      <use xlink:href="#DejaVuSans-6e" transform="translate(805.330078 0)"/>
      <use xlink:href="#DejaVuSans-73" transform="translate(868.708984 0)"/>
      <use xlink:href="#DejaVuSans-74" transform="translate(920.808594 0)"/>
      <use xlink:href="#DejaVuSans-72" transform="translate(960.017578 0)"/>
      <use xlink:href="#DejaVuSans-65" transform="translate(998.880859 0)"/>
      <use xlink:href="#DejaVuSans-61" transform="translate(1060.404297 0)"/>
      <use xlink:href="#DejaVuSans-6d" transform="translate(1121.683594 0)"/>
      <use xlink:href="#DejaVuSans-20" transform="translate(1219.095703 0)"/>
      <use xlink:href="#DejaVuSans-71" transform="translate(1250.882812 0)"/>
      <use xlink:href="#DejaVuSans-75" transform="translate(1314.359375 0)"/>
      <use xlink:href="#DejaVuSans-61" transform="translate(1377.738281 0)"/>
      <use xlink:href="#DejaVuSans-6c" transform="translate(1439.017578 0)"/>
      <use xlink:href="#DejaVuSans-69" transform="translate(1466.800781 0)"/>
      <use xlink:href="#DejaVuSans-74" transform="translate(1494.583984 0)"/>
      <use xlink:href="#DejaVuSans-79" transform="translate(1533.792969 0)"/>
     </g>
    </g>
   </g>
   <g id="line2d_25">
    <path d="M 53.307188 400.721921 
L 60.0191 389.18472 
L 66.731012 378.021088 
L 73.442924 367.21893 
L 80.154836 356.76654 
L 86.866749 346.652595 
L 93.578661 336.866134 
L 100.290573 327.396554 
L 107.002485 318.233595 
L 113.714398 309.367329 
L 120.42631 300.788148 
L 127.138222 292.486757 
L 133.850134 284.454161 
L 142.799351 274.147157 
L 151.748567 264.282716 
L 160.697783 254.841835 
L 169.646999 245.806326 
L 178.596216 237.158785 
L 187.545432 228.882552 
L 196.494648 220.961684 
L 205.443865 213.380923 
L 214.393081 206.125665 
L 223.342297 199.181933 
L 232.291514 192.536352 
L 241.24073 186.176119 
L 250.189946 180.088981 
L 259.139162 174.263214 
L 268.088379 168.687594 
L 277.037595 163.35138 
L 285.986811 158.244292 
L 294.936028 153.356493 
L 303.885244 148.678566 
L 315.071764 143.1126 
L 326.258285 137.843752 
L 337.444805 132.856162 
L 348.631325 128.134816 
L 359.817846 123.665503 
L 371.004366 119.434767 
L 382.190887 115.429873 
L 393.377407 111.638766 
L 404.563927 108.050033 
L 417.987752 103.995518 
L 431.411576 100.199319 
L 444.835401 96.644978 
L 458.259225 93.317086 
L 471.68305 90.201217 
L 487.344178 86.816036 
L 503.005307 83.681112 
L 518.666435 80.777944 
L 534.327564 78.0894 
L 552.225996 75.259282 
L 570.124429 72.666987 
L 588.022861 70.292528 
L 608.158598 67.858913 
L 628.294335 65.654125 
L 650.667376 63.446636 
L 673.040416 61.468535 
L 697.650761 59.529192 
L 722.261106 57.810335 
L 749.108755 56.157303 
L 767.007187 55.170193 
L 767.007187 55.170193 
" clip-path="url(#p5e799c8a02)" style="fill: none; stroke: #5eead4; stroke-width: 3; stroke-linecap: square"/>
   </g>
   <g id="line2d_26">
    <path d="M 53.307188 379.270866 
L 57.781796 364.06633 
L 62.256404 349.552165 
L 66.731012 335.697024 
L 71.20562 322.470985 
L 75.680228 309.845482 
L 80.154836 297.793247 
L 84.629445 286.288252 
L 89.104053 275.305647 
L 93.578661 264.821715 
L 98.053269 254.813812 
L 102.527877 245.260323 
L 107.002485 236.140617 
L 111.477093 227.434996 
L 115.951702 219.124659 
L 120.42631 211.191659 
L 124.900918 203.61886 
L 129.375526 196.38991 
L 133.850134 189.489194 
L 138.324742 182.901809 
L 142.799351 176.613529 
L 147.273959 170.610771 
L 151.748567 164.880573 
L 156.223175 159.410557 
L 160.697783 154.188911 
L 165.172391 149.204357 
L 169.646999 144.44613 
L 176.358912 137.7108 
L 183.070824 131.428955 
L 189.782736 125.570062 
L 196.494648 120.105645 
L 203.206561 115.009143 
L 209.918473 110.255786 
L 216.630385 105.822468 
L 223.342297 101.687643 
L 230.054209 97.831213 
L 236.766122 94.234434 
L 243.478034 90.879823 
L 250.189946 87.751077 
L 256.901858 84.832986 
L 263.613771 82.111369 
L 272.562987 78.765436 
L 281.512203 75.716453 
L 290.461419 72.938066 
L 299.410636 70.40626 
L 308.359852 68.09915 
L 317.309068 65.996795 
L 328.495589 63.62926 
L 339.682109 61.521391 
L 350.86863 59.644708 
L 362.05515 57.973856 
L 375.478974 56.208921 
L 388.902799 54.67365 
L 404.563927 53.133119 
L 420.225056 51.823827 
L 438.123488 50.566363 
L 458.259225 49.404796 
L 478.394962 48.462408 
L 503.005307 47.548581 
L 529.852956 46.785034 
L 561.175213 46.125689 
L 599.209382 45.566013 
L 643.955463 45.136553 
L 702.125369 44.807348 
L 767.007187 44.612811 
L 767.007187 44.612811 
" clip-path="url(#p5e799c8a02)" style="fill: none; stroke: #60a5fa; stroke-width: 3.2; stroke-linecap: square"/>
   </g>
   <g id="patch_3">
    <path d="M 53.307188 421.077187 
L 53.307188 36.877187 
" style="fill: none; stroke: #334155; stroke-width: 0.8; stroke-linejoin: miter; stroke-linecap: square"/>
   </g>
   <g id="patch_4">
    <path d="M 767.007187 421.077187 
L 767.007187 36.877187 
" style="fill: none; stroke: #334155; stroke-width: 0.8; stroke-linejoin: miter; stroke-linecap: square"/>
   </g>
   <g id="patch_5">
    <path d="M 53.307188 421.077187 
L 767.007187 421.077187 
" style="fill: none; stroke: #334155; stroke-width: 0.8; stroke-linejoin: miter; stroke-linecap: square"/>
   </g>
   <g id="patch_6">
    <path d="M 53.307188 36.877187 
L 767.007187 36.877187 
" style="fill: none; stroke: #334155; stroke-width: 0.8; stroke-linejoin: miter; stroke-linecap: square"/>
   </g>
   <g id="legend_1">
    <g id="patch_7">
     <path d="M 590.388438 416.077187 
L 760.007187 416.077187 
Q 762.007187 416.077187 762.007187 414.077187 
L 762.007187 371.042812 
Q 762.007187 369.042812 760.007187 369.042812 
L 590.388438 369.042812 
Q 588.388438 369.042812 588.388438 371.042812 
L 588.388438 414.077187 
Q 588.388438 416.077187 590.388438 416.077187 
z
" style="fill: #0f172a; opacity: 0.8; stroke: #334155; stroke-linejoin: miter"/>
    </g>
    <g id="line2d_27">
     <path d="M 592.388438 377.14125 
L 602.388438 377.14125 
L 612.388438 377.14125 
" style="fill: none; stroke: #5eead4; stroke-width: 3; stroke-linecap: square"/>
    </g>
    <g id="text_15">
     <!-- Fixed-depth transformer -->
     <g style="fill: #e2e8f0" transform="translate(620.388438 380.64125) scale(0.1 -0.1)">
      <defs>
       <path id="DejaVuSans-46" d="M 628 4666 
L 3309 4666 
L 3309 4134 
L 1259 4134 
L 1259 2759 
L 3109 2759 
L 3109 2228 
L 1259 2228 
L 1259 0 
L 628 0 
L 628 4666 
z
" transform="scale(0.015625)"/>
       <path id="DejaVuSans-78" d="M 3513 3500 
L 2247 1797 
L 3578 0 
L 2900 0 
L 1881 1375 
L 863 0 
L 184 0 
L 1544 1831 
L 300 3500 
L 978 3500 
L 1906 2253 
L 2834 3500 
L 3513 3500 
z
" transform="scale(0.015625)"/>
       <path id="DejaVuSans-68" d="M 3513 2113 
L 3513 0 
L 2938 0 
L 2938 2094 
Q 2938 2591 2744 2837 
Q 2550 3084 2163 3084 
Q 1697 3084 1428 2787 
Q 1159 2491 1159 1978 
L 1159 0 
L 581 0 
L 581 4863 
L 1159 4863 
L 1159 2956 
Q 1366 3272 1645 3428 
Q 1925 3584 2291 3584 
Q 2894 3584 3203 3211 
Q 3513 2838 3513 2113 
z
" transform="scale(0.015625)"/>
      </defs>
      <use xlink:href="#DejaVuSans-46"/>
      <use xlink:href="#DejaVuSans-69" transform="translate(50.269531 0)"/>
      <use xlink:href="#DejaVuSans-78" transform="translate(78.052734 0)"/>
      <use xlink:href="#DejaVuSans-65" transform="translate(134.107422 0)"/>
      <use xlink:href="#DejaVuSans-64" transform="translate(195.630859 0)"/>
      <use xlink:href="#DejaVuSans-2d" transform="translate(259.107422 0)"/>
      <use xlink:href="#DejaVuSans-64" transform="translate(295.191406 0)"/>
      <use xlink:href="#DejaVuSans-65" transform="translate(358.667969 0)"/>
      <use xlink:href="#DejaVuSans-70" transform="translate(420.191406 0)"/>
      <use xlink:href="#DejaVuSans-74" transform="translate(483.667969 0)"/>
      <use xlink:href="#DejaVuSans-68" transform="translate(522.876953 0)"/>
      <use xlink:href="#DejaVuSans-20" transform="translate(586.255859 0)"/>
      <use xlink:href="#DejaVuSans-74" transform="translate(618.042969 0)"/>
      <use xlink:href="#DejaVuSans-72" transform="translate(657.251953 0)"/>
      <use xlink:href="#DejaVuSans-61" transform="translate(698.365234 0)"/>
      <use xlink:href="#DejaVuSans-6e" transform="translate(759.644531 0)"/>
      <use xlink:href="#DejaVuSans-73" transform="translate(823.023438 0)"/>
      <use xlink:href="#DejaVuSans-66" transform="translate(875.123047 0)"/>
      <use xlink:href="#DejaVuSans-6f" transform="translate(910.328125 0)"/>
      <use xlink:href="#DejaVuSans-72" transform="translate(971.509766 0)"/>
      <use xlink:href="#DejaVuSans-6d" transform="translate(1010.873047 0)"/>
      <use xlink:href="#DejaVuSans-65" transform="translate(1108.285156 0)"/>
      <use xlink:href="#DejaVuSans-72" transform="translate(1169.808594 0)"/>
     </g>
    </g>
    <g id="line2d_28">
     <path d="M 592.388438 391.819375 
L 602.388438 391.819375 
L 612.388438 391.819375 
" style="fill: none; stroke: #60a5fa; stroke-width: 3.2; stroke-linecap: square"/>
    </g>
    <g id="text_16">
     <!-- Looped transformer -->
     <g style="fill: #e2e8f0" transform="translate(620.388438 395.319375) scale(0.1 -0.1)">
      <defs>
       <path id="DejaVuSans-4c" d="M 628 4666 
L 1259 4666 
L 1259 531 
L 3531 531 
L 3531 0 
L 628 0 
L 628 4666 
z
" transform="scale(0.015625)"/>
      </defs>
      <use xlink:href="#DejaVuSans-4c"/>
      <use xlink:href="#DejaVuSans-6f" transform="translate(53.962891 0)"/>
      <use xlink:href="#DejaVuSans-6f" transform="translate(115.144531 0)"/>
      <use xlink:href="#DejaVuSans-70" transform="translate(176.326172 0)"/>
      <use xlink:href="#DejaVuSans-65" transform="translate(239.802734 0)"/>
      <use xlink:href="#DejaVuSans-64" transform="translate(301.326172 0)"/>
      <use xlink:href="#DejaVuSans-20" transform="translate(364.802734 0)"/>
      <use xlink:href="#DejaVuSans-74" transform="translate(396.589844 0)"/>
      <use xlink:href="#DejaVuSans-72" transform="translate(435.798828 0)"/>
      <use xlink:href="#DejaVuSans-61" transform="translate(476.912109 0)"/>
      <use xlink:href="#DejaVuSans-6e" transform="translate(538.191406 0)"/>
      <use xlink:href="#DejaVuSans-73" transform="translate(601.570312 0)"/>
      <use xlink:href="#DejaVuSans-66" transform="translate(653.669922 0)"/>
      <use xlink:href="#DejaVuSans-6f" transform="translate(688.875 0)"/>
      <use xlink:href="#DejaVuSans-72" transform="translate(750.056641 0)"/>
      <use xlink:href="#DejaVuSans-6d" transform="translate(789.419922 0)"/>
      <use xlink:href="#DejaVuSans-65" transform="translate(886.832031 0)"/>
      <use xlink:href="#DejaVuSans-72" transform="translate(948.355469 0)"/>
     </g>
    </g>
    <g id="line2d_29">
     <path d="M 592.388438 406.4975 
L 602.388438 406.4975 
L 612.388438 406.4975 
" style="fill: none; stroke-dasharray: 8.14,3.52; stroke-dashoffset: 0; stroke: #c084fc; stroke-width: 2.2"/>
    </g>
    <g id="text_17">
     <!-- Relative inference compute -->
     <g style="fill: #e2e8f0" transform="translate(620.388438 409.9975) scale(0.1 -0.1)">
      <defs>
       <path id="DejaVuSans-52" d="M 2841 2188 
Q 3044 2119 3236 1894 
Q 3428 1669 3622 1275 
L 4263 0 
L 3584 0 
L 2988 1197 
Q 2756 1666 2539 1819 
Q 2322 1972 1947 1972 
L 1259 1972 
L 1259 0 
L 628 0 
L 628 4666 
L 2053 4666 
Q 2853 4666 3247 4331 
Q 3641 3997 3641 3322 
Q 3641 2881 3436 2590 
Q 3231 2300 2841 2188 
z
M 1259 4147 
L 1259 2491 
L 2053 2491 
Q 2509 2491 2742 2702 
Q 2975 2913 2975 3322 
Q 2975 3731 2742 3939 
Q 2509 4147 2053 4147 
L 1259 4147 
z
" transform="scale(0.015625)"/>
       <path id="DejaVuSans-76" d="M 191 3500 
L 800 3500 
L 1894 563 
L 2988 3500 
L 3597 3500 
L 2284 0 
L 1503 0 
L 191 3500 
z
" transform="scale(0.015625)"/>
      </defs>
      <use xlink:href="#DejaVuSans-52"/>
      <use xlink:href="#DejaVuSans-65" transform="translate(64.982422 0)"/>
      <use xlink:href="#DejaVuSans-6c" transform="translate(126.505859 0)"/>
      <use xlink:href="#DejaVuSans-61" transform="translate(154.289062 0)"/>
      <use xlink:href="#DejaVuSans-74" transform="translate(215.568359 0)"/>
      <use xlink:href="#DejaVuSans-69" transform="translate(254.777344 0)"/>
      <use xlink:href="#DejaVuSans-76" transform="translate(282.560547 0)"/>
      <use xlink:href="#DejaVuSans-65" transform="translate(341.740234 0)"/>
      <use xlink:href="#DejaVuSans-20" transform="translate(403.263672 0)"/>
      <use xlink:href="#DejaVuSans-69" transform="translate(435.050781 0)"/>
      <use xlink:href="#DejaVuSans-6e" transform="translate(462.833984 0)"/>
      <use xlink:href="#DejaVuSans-66" transform="translate(526.212891 0)"/>
      <use xlink:href="#DejaVuSans-65" transform="translate(561.417969 0)"/>
      <use xlink:href="#DejaVuSans-72" transform="translate(622.941406 0)"/>
      <use xlink:href="#DejaVuSans-65" transform="translate(661.804688 0)"/>
      <use xlink:href="#DejaVuSans-6e" transform="translate(723.328125 0)"/>
      <use xlink:href="#DejaVuSans-63" transform="translate(786.707031 0)"/>
      <use xlink:href="#DejaVuSans-65" transform="translate(841.6875 0)"/>
      <use xlink:href="#DejaVuSans-20" transform="translate(903.210938 0)"/>
      <use xlink:href="#DejaVuSans-63" transform="translate(934.998047 0)"/>
      <use xlink:href="#DejaVuSans-6f" transform="translate(989.978516 0)"/>
      <use xlink:href="#DejaVuSans-6d" transform="translate(1051.160156 0)"/>
      <use xlink:href="#DejaVuSans-70" transform="translate(1148.572266 0)"/>
      <use xlink:href="#DejaVuSans-75" transform="translate(1212.048828 0)"/>
      <use xlink:href="#DejaVuSans-74" transform="translate(1275.427734 0)"/>
      <use xlink:href="#DejaVuSans-65" transform="translate(1314.636719 0)"/>
     </g>
    </g>
   </g>
  </g>
  <g id="axes_2">
   <g id="matplotlib.axis_3">
    <g id="ytick_7">
     <g id="line2d_30">
      <defs>
       <path id="mbbc8cd21b4" d="M 0 0 
L 3.5 0 
" style="stroke: #94a3b8; stroke-width: 0.8"/>
      </defs>
      <g>
       <use xlink:href="#mbbc8cd21b4" x="767.007187" y="421.077187" style="fill: #94a3b8; stroke: #94a3b8; stroke-width: 0.8"/>
      </g>
     </g>
     <g id="text_18">
      <!-- 0.0 -->
      <g style="fill: #94a3b8" transform="translate(774.007187 424.876406) scale(0.1 -0.1)">
       <use xlink:href="#DejaVuSans-30"/>
       <use xlink:href="#DejaVuSans-2e" transform="translate(63.623047 0)"/>
       <use xlink:href="#DejaVuSans-30" transform="translate(95.410156 0)"/>
      </g>
     </g>
    </g>
    <g id="ytick_8">
     <g id="line2d_31">
      <g>
       <use xlink:href="#mbbc8cd21b4" x="767.007187" y="345.743854" style="fill: #94a3b8; stroke: #94a3b8; stroke-width: 0.8"/>
      </g>
     </g>
     <g id="text_19">
      <!-- 0.2 -->
      <g style="fill: #94a3b8" transform="translate(774.007187 349.543073) scale(0.1 -0.1)">
       <use xlink:href="#DejaVuSans-30"/>
       <use xlink:href="#DejaVuSans-2e" transform="translate(63.623047 0)"/>
       <use xlink:href="#DejaVuSans-32" transform="translate(95.410156 0)"/>
      </g>
     </g>
    </g>
    <g id="ytick_9">
     <g id="line2d_32">
      <g>
       <use xlink:href="#mbbc8cd21b4" x="767.007187" y="270.410521" style="fill: #94a3b8; stroke: #94a3b8; stroke-width: 0.8"/>
      </g>
     </g>
     <g id="text_20">
      <!-- 0.4 -->
      <g style="fill: #94a3b8" transform="translate(774.007187 274.20974) scale(0.1 -0.1)">
       <use xlink:href="#DejaVuSans-30"/>
       <use xlink:href="#DejaVuSans-2e" transform="translate(63.623047 0)"/>
       <use xlink:href="#DejaVuSans-34" transform="translate(95.410156 0)"/>
      </g>
     </g>
    </g>
    <g id="ytick_10">
     <g id="line2d_33">
      <g>
       <use xlink:href="#mbbc8cd21b4" x="767.007187" y="195.077187" style="fill: #94a3b8; stroke: #94a3b8; stroke-width: 0.8"/>
      </g>
     </g>
     <g id="text_21">
      <!-- 0.6 -->
      <g style="fill: #94a3b8" transform="translate(774.007187 198.876406) scale(0.1 -0.1)">
       <use xlink:href="#DejaVuSans-30"/>
       <use xlink:href="#DejaVuSans-2e" transform="translate(63.623047 0)"/>
       <use xlink:href="#DejaVuSans-36" transform="translate(95.410156 0)"/>
      </g>
     </g>
    </g>
    <g id="ytick_11">
     <g id="line2d_34">
      <g>
       <use xlink:href="#mbbc8cd21b4" x="767.007187" y="119.743854" style="fill: #94a3b8; stroke: #94a3b8; stroke-width: 0.8"/>
      </g>
     </g>
     <g id="text_22">
      <!-- 0.8 -->
      <g style="fill: #94a3b8" transform="translate(774.007187 123.543073) scale(0.1 -0.1)">
       <use xlink:href="#DejaVuSans-30"/>
       <use xlink:href="#DejaVuSans-2e" transform="translate(63.623047 0)"/>
       <use xlink:href="#DejaVuSans-38" transform="translate(95.410156 0)"/>
      </g>
     </g>
    </g>
    <g id="ytick_12">
     <g id="line2d_35">
      <g>
       <use xlink:href="#mbbc8cd21b4" x="767.007187" y="44.410521" style="fill: #94a3b8; stroke: #94a3b8; stroke-width: 0.8"/>
      </g>
     </g>
     <g id="text_23">
      <!-- 1.0 -->
      <g style="fill: #94a3b8" transform="translate(774.007187 48.20974) scale(0.1 -0.1)">
       <use xlink:href="#DejaVuSans-31"/>
       <use xlink:href="#DejaVuSans-2e" transform="translate(63.623047 0)"/>
       <use xlink:href="#DejaVuSans-30" transform="translate(95.410156 0)"/>
      </g>
     </g>
    </g>
    <g id="text_24">
     <!-- Relative compute -->
     <g style="fill: #c4b5fd" transform="translate(811.028437 281.55125) rotate(-90) scale(0.12 -0.12)">
      <use xlink:href="#DejaVuSans-52"/>
      <use xlink:href="#DejaVuSans-65" transform="translate(64.982422 0)"/>
      <use xlink:href="#DejaVuSans-6c" transform="translate(126.505859 0)"/>
      <use xlink:href="#DejaVuSans-61" transform="translate(154.289062 0)"/>
      <use xlink:href="#DejaVuSans-74" transform="translate(215.568359 0)"/>
      <use xlink:href="#DejaVuSans-69" transform="translate(254.777344 0)"/>
      <use xlink:href="#DejaVuSans-76" transform="translate(282.560547 0)"/>
      <use xlink:href="#DejaVuSans-65" transform="translate(341.740234 0)"/>
      <use xlink:href="#DejaVuSans-20" transform="translate(403.263672 0)"/>
      <use xlink:href="#DejaVuSans-63" transform="translate(435.050781 0)"/>
      <use xlink:href="#DejaVuSans-6f" transform="translate(490.03125 0)"/>
      <use xlink:href="#DejaVuSans-6d" transform="translate(551.212891 0)"/>
      <use xlink:href="#DejaVuSans-70" transform="translate(648.625 0)"/>
      <use xlink:href="#DejaVuSans-75" transform="translate(712.101562 0)"/>
      <use xlink:href="#DejaVuSans-74" transform="translate(775.480469 0)"/>
      <use xlink:href="#DejaVuSans-65" transform="translate(814.689453 0)"/>
     </g>
    </g>
   </g>
   <g id="line2d_36">
    <path d="M 53.307188 358.532574 
L 55.544492 350.035387 
L 57.781796 342.26996 
L 60.0191 335.120192 
L 62.256404 328.495592 
L 64.493708 322.32426 
L 66.731012 316.548122 
L 68.968316 311.119596 
L 73.442924 301.153844 
L 77.917532 292.180104 
L 82.39214 284.018639 
L 86.866749 276.534527 
L 91.341357 269.623901 
L 95.815965 263.205093 
L 100.290573 257.212727 
L 104.765181 251.593652 
L 109.239789 246.304076 
L 113.714398 241.307486 
L 118.189006 236.573122 
L 122.663614 232.074828 
L 129.375526 225.721805 
L 136.087438 219.786808 
L 142.799351 214.218206 
L 149.511263 208.973379 
L 156.223175 204.016736 
L 162.935087 199.31825 
L 169.646999 194.852356 
L 176.358912 190.597108 
L 185.308128 185.218674 
L 194.257344 180.142873 
L 203.206561 175.337456 
L 212.155777 170.775067 
L 221.104993 166.432303 
L 232.291514 161.282217 
L 243.478034 156.410271 
L 254.664554 151.787956 
L 265.851075 147.390933 
L 279.274899 142.382601 
L 292.698724 137.637697 
L 306.122548 133.129889 
L 319.546372 128.836605 
L 335.207501 124.073047 
L 350.86863 119.548406 
L 366.529758 115.239856 
L 384.428191 110.555248 
L 402.326623 106.101893 
L 422.46236 101.341312 
L 442.598097 96.819357 
L 462.733833 92.513243 
L 485.106874 87.957984 
L 507.479915 83.621681 
L 532.09026 79.080749 
L 556.700604 74.75743 
L 583.548253 70.265949 
L 612.633206 65.639929 
L 641.718159 61.239554 
L 673.040416 56.72902 
L 706.599977 52.13411 
L 740.159539 47.761891 
L 767.007187 44.410521 
L 767.007187 44.410521 
" clip-path="url(#p5e799c8a02)" style="fill: none; stroke-dasharray: 8.14,3.52; stroke-dashoffset: 0; stroke: #c084fc; stroke-width: 2.2"/>
   </g>
   <g id="patch_8">
    <path d="M 53.307188 421.077187 
L 53.307188 36.877187 
" style="fill: none; stroke: #334155; stroke-width: 0.8; stroke-linejoin: miter; stroke-linecap: square"/>
   </g>
   <g id="patch_9">
    <path d="M 767.007187 421.077187 
L 767.007187 36.877187 
" style="fill: none; stroke: #334155; stroke-width: 0.8; stroke-linejoin: miter; stroke-linecap: square"/>
   </g>
   <g id="patch_10">
    <path d="M 53.307188 421.077187 
L 767.007187 421.077187 
" style="fill: none; stroke: #334155; stroke-width: 0.8; stroke-linejoin: miter; stroke-linecap: square"/>
   </g>
   <g id="patch_11">
    <path d="M 53.307188 36.877187 
L 767.007187 36.877187 
" style="fill: none; stroke: #334155; stroke-width: 0.8; stroke-linejoin: miter; stroke-linecap: square"/>
   </g>
   <g id="text_25">
    <!-- Illustrative scaling curves -->
    <g style="fill: #94a3b8" transform="translate(87.292902 67.010521) scale(0.11 -0.11)">
     <defs>
      <path id="DejaVuSans-67" d="M 2906 1791 
Q 2906 2416 2648 2759 
Q 2391 3103 1925 3103 
Q 1463 3103 1205 2759 
Q 947 2416 947 1791 
Q 947 1169 1205 825 
Q 1463 481 1925 481 
Q 2391 481 2648 825 
Q 2906 1169 2906 1791 
z
M 3481 434 
Q 3481 -459 3084 -895 
Q 2688 -1331 1869 -1331 
Q 1566 -1331 1297 -1286 
Q 1028 -1241 775 -1147 
L 775 -588 
Q 1028 -725 1275 -790 
Q 1522 -856 1778 -856 
Q 2344 -856 2625 -561 
Q 2906 -266 2906 331 
L 2906 616 
Q 2728 306 2450 153 
Q 2172 0 1784 0 
Q 1141 0 747 490 
Q 353 981 353 1791 
Q 353 2603 747 3093 
Q 1141 3584 1784 3584 
Q 2172 3584 2450 3431 
Q 2728 3278 2906 2969 
L 2906 3500 
L 3481 3500 
L 3481 434 
z
" transform="scale(0.015625)"/>
     </defs>
     <use xlink:href="#DejaVuSans-49"/>
     <use xlink:href="#DejaVuSans-6c" transform="translate(29.492188 0)"/>
     <use xlink:href="#DejaVuSans-6c" transform="translate(57.275391 0)"/>
     <use xlink:href="#DejaVuSans-75" transform="translate(85.058594 0)"/>
     <use xlink:href="#DejaVuSans-73" transform="translate(148.4375 0)"/>
     <use xlink:href="#DejaVuSans-74" transform="translate(200.537109 0)"/>
     <use xlink:href="#DejaVuSans-72" transform="translate(239.746094 0)"/>
     <use xlink:href="#DejaVuSans-61" transform="translate(280.859375 0)"/>
     <use xlink:href="#DejaVuSans-74" transform="translate(342.138672 0)"/>
     <use xlink:href="#DejaVuSans-69" transform="translate(381.347656 0)"/>
     <use xlink:href="#DejaVuSans-76" transform="translate(409.130859 0)"/>
     <use xlink:href="#DejaVuSans-65" transform="translate(468.310547 0)"/>
     <use xlink:href="#DejaVuSans-20" transform="translate(529.833984 0)"/>
     <use xlink:href="#DejaVuSans-73" transform="translate(561.621094 0)"/>
     <use xlink:href="#DejaVuSans-63" transform="translate(613.720703 0)"/>
     <use xlink:href="#DejaVuSans-61" transform="translate(668.701172 0)"/>
     <use xlink:href="#DejaVuSans-6c" transform="translate(729.980469 0)"/>
     <use xlink:href="#DejaVuSans-69" transform="translate(757.763672 0)"/>
     <use xlink:href="#DejaVuSans-6e" transform="translate(785.546875 0)"/>
     <use xlink:href="#DejaVuSans-67" transform="translate(848.925781 0)"/>
     <use xlink:href="#DejaVuSans-20" transform="translate(912.402344 0)"/>
     <use xlink:href="#DejaVuSans-63" transform="translate(944.189453 0)"/>
     <use xlink:href="#DejaVuSans-75" transform="translate(999.169922 0)"/>
     <use xlink:href="#DejaVuSans-72" transform="translate(1062.548828 0)"/>
     <use xlink:href="#DejaVuSans-76" transform="translate(1103.662109 0)"/>
     <use xlink:href="#DejaVuSans-65" transform="translate(1162.841797 0)"/>
     <use xlink:href="#DejaVuSans-73" transform="translate(1224.365234 0)"/>
    </g>
   </g>
   <g id="text_26">
    <!-- Inference-time scaling with repeated recurrent depth -->
    <g style="fill: #f8fafc" transform="translate(171.046875 20.877187) scale(0.18 -0.18)">
     <use xlink:href="#DejaVuSans-49"/>
     <use xlink:href="#DejaVuSans-6e" transform="translate(29.492188 0)"/>
     <use xlink:href="#DejaVuSans-66" transform="translate(92.871094 0)"/>
     <use xlink:href="#DejaVuSans-65" transform="translate(128.076172 0)"/>
     <use xlink:href="#DejaVuSans-72" transform="translate(189.599609 0)"/>
     <use xlink:href="#DejaVuSans-65" transform="translate(228.462891 0)"/>
     <use xlink:href="#DejaVuSans-6e" transform="translate(289.986328 0)"/>
     <use xlink:href="#DejaVuSans-63" transform="translate(353.365234 0)"/>
     <use xlink:href="#DejaVuSans-65" transform="translate(408.345703 0)"/>
     <use xlink:href="#DejaVuSans-2d" transform="translate(469.869141 0)"/>
     <use xlink:href="#DejaVuSans-74" transform="translate(505.953125 0)"/>
     <use xlink:href="#DejaVuSans-69" transform="translate(545.162109 0)"/>
     <use xlink:href="#DejaVuSans-6d" transform="translate(572.945312 0)"/>
     <use xlink:href="#DejaVuSans-65" transform="translate(670.357422 0)"/>
     <use xlink:href="#DejaVuSans-20" transform="translate(731.880859 0)"/>
     <use xlink:href="#DejaVuSans-73" transform="translate(763.667969 0)"/>
     <use xlink:href="#DejaVuSans-63" transform="translate(815.767578 0)"/>
     <use xlink:href="#DejaVuSans-61" transform="translate(870.748047 0)"/>
     <use xlink:href="#DejaVuSans-6c" transform="translate(932.027344 0)"/>
     <use xlink:href="#DejaVuSans-69" transform="translate(959.810547 0)"/>
     <use xlink:href="#DejaVuSans-6e" transform="translate(987.59375 0)"/>
     <use xlink:href="#DejaVuSans-67" transform="translate(1050.972656 0)"/>
     <use xlink:href="#DejaVuSans-20" transform="translate(1114.449219 0)"/>
     <use xlink:href="#DejaVuSans-77" transform="translate(1146.236328 0)"/>
     <use xlink:href="#DejaVuSans-69" transform="translate(1228.023438 0)"/>
     <use xlink:href="#DejaVuSans-74" transform="translate(1255.806641 0)"/>
     <use xlink:href="#DejaVuSans-68" transform="translate(1295.015625 0)"/>
     <use xlink:href="#DejaVuSans-20" transform="translate(1358.394531 0)"/>
     <use xlink:href="#DejaVuSans-72" transform="translate(1390.181641 0)"/>
     <use xlink:href="#DejaVuSans-65" transform="translate(1429.044922 0)"/>
     <use xlink:href="#DejaVuSans-70" transform="translate(1490.568359 0)"/>
     <use xlink:href="#DejaVuSans-65" transform="translate(1554.044922 0)"/>
     <use xlink:href="#DejaVuSans-61" transform="translate(1615.568359 0)"/>
     <use xlink:href="#DejaVuSans-74" transform="translate(1676.847656 0)"/>
     <use xlink:href="#DejaVuSans-65" transform="translate(1716.056641 0)"/>
     <use xlink:href="#DejaVuSans-64" transform="translate(1777.580078 0)"/>
     <use xlink:href="#DejaVuSans-20" transform="translate(1841.056641 0)"/>
     <use xlink:href="#DejaVuSans-72" transform="translate(1872.84375 0)"/>
     <use xlink:href="#DejaVuSans-65" transform="translate(1911.707031 0)"/>
     <use xlink:href="#DejaVuSans-63" transform="translate(1973.230469 0)"/>
     <use xlink:href="#DejaVuSans-75" transform="translate(2028.210938 0)"/>
     <use xlink:href="#DejaVuSans-72" transform="translate(2091.589844 0)"/>
     <use xlink:href="#DejaVuSans-72" transform="translate(2130.953125 0)"/>
     <use xlink:href="#DejaVuSans-65" transform="translate(2169.816406 0)"/>
     <use xlink:href="#DejaVuSans-6e" transform="translate(2231.339844 0)"/>
     <use xlink:href="#DejaVuSans-74" transform="translate(2294.71875 0)"/>
     <use xlink:href="#DejaVuSans-20" transform="translate(2333.927734 0)"/>
     <use xlink:href="#DejaVuSans-64" transform="translate(2365.714844 0)"/>
     <use xlink:href="#DejaVuSans-65" transform="translate(2429.191406 0)"/>
     <use xlink:href="#DejaVuSans-70" transform="translate(2490.714844 0)"/>
     <use xlink:href="#DejaVuSans-74" transform="translate(2554.191406 0)"/>
     <use xlink:href="#DejaVuSans-68" transform="translate(2593.400391 0)"/>
    </g>
   </g>
  </g>
 </g>
 <defs>
  <clipPath id="p5e799c8a02">
   <rect x="53.307188" y="36.877187" width="713.7" height="384.2"/>
  </clipPath>
 </defs>
</svg>
